<svg width="46" height="46" viewBox="0 0 46 46" fill="none" xmlns="http://www.w3.org/2000/svg">
<rect width="46" height="46" rx="10" fill="#F3BB3E"/>
<path d="M12.6496 16.178H11.9473V18.6311C11.6938 18.48 11.3287 18.3506 10.8519 18.2427C10.4052 18.1392 10.0185 18.0874 9.69208 18.0874C8.90598 18.0874 8.24661 18.2276 7.71395 18.5081C7.41326 18.6677 7.26291 18.877 7.26291 19.1359C7.26291 19.4811 7.44333 19.6537 7.80416 19.6537C8.02324 19.6537 8.30889 19.589 8.66113 19.4595C8.8888 19.3776 9.1809 19.274 9.53744 19.1489C9.68779 19.0971 9.95411 19.0712 10.3364 19.0712C11.0796 19.0712 11.6337 19.302 11.9988 19.7638C12.1749 19.9838 12.263 20.2427 12.263 20.5405C12.263 21.2265 11.8334 21.7659 10.9743 22.1586C10.6178 22.3225 10.2784 22.4153 9.95626 22.4369C10.2655 22.7476 10.5598 22.9029 10.839 22.9029C10.9292 22.9029 11.0259 22.89 11.129 22.8641L11.7798 23.932C11.6466 24.0485 11.3738 24.1068 10.9614 24.1068C10.6264 24.1068 10.3429 23.9924 10.1109 23.7638C9.98633 23.6386 9.81021 23.3776 9.58254 22.9806C9.38924 22.6397 9.22816 22.4671 9.09929 22.4628C8.3046 22.4412 7.69247 22.2967 7.26291 22.0291C6.99229 21.8608 6.85698 21.63 6.85698 21.3366C6.85698 20.9741 7.07176 20.7929 7.50132 20.7929C7.66026 20.7929 7.99102 20.918 8.49361 21.1683C9.00049 21.4142 9.41716 21.5372 9.74363 21.5372C10.3966 21.5372 11.0087 21.3819 11.58 21.0712C11.8592 20.9202 11.9988 20.7346 11.9988 20.5146C11.9988 20.1866 11.7411 20.0227 11.2256 20.0227C11.0667 20.0227 10.5534 20.1392 9.68564 20.3722C9.17446 20.5102 8.86088 20.5793 8.7449 20.5793C8.0619 20.5793 7.49917 20.2557 7.05672 19.6084C6.84194 19.2977 6.73455 18.9633 6.73455 18.6052C6.73025 17.8759 7.2264 17.384 8.22298 17.1295C8.63107 17.0259 9.01552 16.9741 9.37635 16.9741C9.78873 16.9741 10.3729 17.0755 11.129 17.2783V16.178H6V15.4013H12.6496V16.178Z" fill="black"/>
<path d="M19.6601 16.178H14.4602V18.1262C14.9284 17.6127 15.3623 17.2826 15.7618 17.1359C15.9852 17.0539 16.2365 17.0129 16.5157 17.0129C17.5638 17.0129 18.3477 17.5307 18.8675 18.5663C19.0952 19.0194 19.209 19.466 19.209 19.9061C19.209 20.7087 18.8804 21.4337 18.2232 22.0809C18.0041 22.2967 17.8409 22.4455 17.7335 22.5275L16.6768 21.8932C16.9431 21.6127 17.2459 21.2675 17.5853 20.8576C17.9676 20.3959 18.1609 19.8134 18.1652 19.11C18.1695 18.6915 18.075 18.342 17.8817 18.0615C17.6626 17.7336 17.3533 17.5739 16.9538 17.5825C16.5844 17.5912 16.1892 17.7314 15.7682 18.0032C15.3902 18.2449 15.0766 18.534 14.8275 18.8706C14.5569 19.233 14.4216 19.5825 14.4216 19.9191V22.4887L13.2166 21.8414V16.178H12.5079V15.4013H13.2166C13.2166 14.1327 12.888 13.0496 12.2308 12.1521C11.8356 11.6127 11.4705 11.233 11.1354 11.0129L12.437 11C13.1586 11.397 13.7321 12.2535 14.1574 13.5696C14.3593 14.1953 14.4602 14.8058 14.4602 15.4013H19.6601V16.178Z" fill="black"/>
<path d="M26.0455 16.178H19.5312V15.4013H26.0455V16.178ZM25.5107 18.5016C25.5107 18.7562 25.3582 19.0431 25.0532 19.3625C24.7955 19.6343 24.5248 19.8371 24.2413 19.9709L23.2748 18.8706C23.5669 18.8447 23.844 18.7368 24.106 18.5469C24.4067 18.3312 24.5571 18.0852 24.5571 17.8091C24.5571 17.6624 24.4626 17.5372 24.2736 17.4337C24.1103 17.3387 23.9492 17.2913 23.7903 17.2913C23.4595 17.2913 23.1051 17.4509 22.7271 17.7702C21.9582 18.4175 21.5738 19.1338 21.5738 19.9191V22.6634L20.3366 22.0162V17.2265H21.5866V17.7184C21.7714 17.5329 22.1537 17.3387 22.7336 17.1359C23.0171 17.0367 23.3092 16.9871 23.6099 16.9871C24.2327 16.9871 24.7611 17.2265 25.195 17.7055C25.4054 17.9385 25.5107 18.2039 25.5107 18.5016Z" fill="black"/>
<path d="M32.7209 16.178H30.9618V17.4531C31.1637 17.5005 31.3098 17.5588 31.4 17.6278V18.3916C30.8888 18.2147 30.3561 18.1262 29.802 18.1262C29.4025 18.1262 29.0159 18.1931 28.6422 18.3269C28.1439 18.5038 27.8926 18.7562 27.8883 19.0841C27.8797 19.4293 28.3673 19.6019 29.351 19.6019C29.3724 19.6019 29.5121 19.5955 29.7698 19.5825L30.1564 19.5631V20.1586C29.5722 20.1758 29.2071 20.1909 29.061 20.2039C28.0344 20.2945 27.521 20.5922 27.521 21.0971C27.521 21.3776 27.6993 21.5976 28.0558 21.7573C28.3351 21.8824 28.6358 21.945 28.9579 21.945C30.354 21.945 31.4837 21.3236 32.3472 20.0809V21.7184C31.6083 22.1888 30.7342 22.4239 29.7247 22.4239C28.6207 22.4239 27.6671 22.1672 26.8638 21.6537C26.4729 21.4035 26.2775 21.1165 26.2775 20.7929C26.2775 20.4779 26.4149 20.2039 26.6898 19.9709C26.8574 19.8285 27.1344 19.6645 27.521 19.479L27.0958 19.233C26.8423 19.0863 26.7156 18.89 26.7156 18.644C26.7156 18.109 27.1173 17.7249 27.9205 17.4919C28.5305 17.315 29.2157 17.2265 29.976 17.2265V16.178H25.8457V15.4013H32.7209V16.178Z" fill="black"/>
<path d="M39.422 16.178H37.663V17.4531C37.8649 17.5005 38.0109 17.5588 38.1011 17.6278V18.3916C37.59 18.2147 37.0573 18.1262 36.5032 18.1262C36.1037 18.1262 35.7171 18.1931 35.3434 18.3269C34.8451 18.5038 34.5938 18.7562 34.5895 19.0841C34.5809 19.4293 35.0684 19.6019 36.0521 19.6019C36.0736 19.6019 36.2132 19.5955 36.471 19.5825L36.8576 19.5631V20.1586C36.2734 20.1758 35.9082 20.1909 35.7622 20.2039C34.7355 20.2945 34.2222 20.5922 34.2222 21.0971C34.2222 21.3776 34.4005 21.5976 34.757 21.7573C35.0362 21.8824 35.3369 21.945 35.6591 21.945C37.0552 21.945 38.1849 21.3236 39.0483 20.0809V21.7184C38.3095 22.1888 37.4353 22.4239 36.4259 22.4239C35.3219 22.4239 34.3683 22.1672 33.565 21.6537C33.1741 21.4035 32.9786 21.1165 32.9786 20.7929C32.9786 20.4779 33.1161 20.2039 33.391 19.9709C33.5585 19.8285 33.8356 19.6645 34.2222 19.479L33.7969 19.233C33.5435 19.0863 33.4168 18.89 33.4168 18.644C33.4168 18.109 33.8184 17.7249 34.6217 17.4919C35.2317 17.315 35.9168 17.2265 36.6771 17.2265V16.178H32.5469V15.4013H39.422V16.178Z" fill="black"/>
<path d="M18.043 27.0437H17.4982V26.4612H18.043V27.0437ZM16.2851 27.0437H15.6991V26.4612H16.2851V27.0437ZM17.3286 25.8738V31.8495C17.2943 31.8398 17.2497 31.822 17.1949 31.7961L16.9276 31.665C16.6226 31.5162 16.4616 31.4417 16.4444 31.4417V25.8835C16.4444 25.5437 16.3742 25.1828 16.2337 24.801C16.0383 24.267 15.7351 23.7816 15.3238 23.3447L15 23H16.0949C16.6637 23.5372 17.0373 24.1958 17.2155 24.9757C17.2909 25.3058 17.3286 25.6052 17.3286 25.8738Z" fill="black"/>
<path d="M22.9829 27.0437H19.5594V27.8204C19.5731 27.8204 19.5869 27.8269 19.6006 27.8398C19.6143 27.8528 19.6263 27.8592 19.6365 27.8592C19.6091 27.8592 19.5937 27.8576 19.5903 27.8544C19.5903 27.8382 19.8456 27.7864 20.3562 27.699C20.5447 27.6667 20.7314 27.6505 20.9165 27.6505C21.6875 27.6505 22.1827 27.8544 22.402 28.2621C22.5494 28.534 22.623 29.0825 22.623 29.9078V31.7767C22.5511 31.7508 22.2786 31.6456 21.8057 31.4612C21.8057 31.3576 21.7835 31.2913 21.7389 31.2621C21.5573 31.3625 21.4082 31.4385 21.2917 31.4903C20.9216 31.6553 20.4915 31.7379 20.0015 31.7379C19.3264 31.7379 18.8055 31.5372 18.4389 31.1359C18.2607 30.9417 18.1716 30.7249 18.1716 30.4854C18.1716 30.2168 18.3121 29.9498 18.5931 29.6845C19.1379 29.1699 19.8147 28.9126 20.6235 28.9126C21.1135 28.9126 21.5076 29.0194 21.8057 29.233V28.7864C21.655 28.6052 21.5076 28.4838 21.3637 28.4223C21.2232 28.3608 21.0296 28.3333 20.7828 28.3398C20.2311 28.3495 19.7256 28.445 19.2664 28.6262C19.0608 28.7071 18.8604 28.7799 18.665 28.8447V28.4854C18.7096 28.4498 18.7747 28.3964 18.8604 28.3252C18.8741 28.3091 18.8826 28.2994 18.8861 28.2961V27.0437H17.8323V26.4612H22.9829V27.0437ZM21.8057 30.1165C21.8057 29.9741 21.6258 29.8463 21.266 29.733C20.9679 29.6392 20.7194 29.5922 20.5207 29.5922C19.7976 29.5922 19.2185 29.8382 18.7833 30.3301C18.6085 30.5275 18.5211 30.6893 18.5211 30.8155C18.5931 31.0518 18.8758 31.1699 19.3692 31.1699C20.0066 31.1699 20.5892 31.0194 21.1169 30.7184C21.5761 30.4563 21.8057 30.2557 21.8057 30.1165Z" fill="black"/>
<path d="M28.19 27.0437H27.6297V28.8835C27.4275 28.7702 27.1362 28.6731 26.7558 28.5922C26.3994 28.5146 26.091 28.4757 25.8306 28.4757C25.2035 28.4757 24.6774 28.5809 24.2525 28.7913C24.0126 28.911 23.8927 29.068 23.8927 29.2621C23.8927 29.521 24.0366 29.6505 24.3245 29.6505C24.4992 29.6505 24.7271 29.6019 25.0081 29.5049C25.1898 29.4434 25.4228 29.3657 25.7072 29.2718C25.8272 29.233 26.0396 29.2136 26.3446 29.2136C26.9375 29.2136 27.3795 29.3867 27.6708 29.733C27.8113 29.8981 27.8816 30.0922 27.8816 30.3155C27.8816 30.8301 27.5389 31.2346 26.8535 31.5291C26.5691 31.6521 26.2984 31.7217 26.0413 31.7379C26.2881 31.9709 26.5228 32.0874 26.7456 32.0874C26.8175 32.0874 26.8946 32.0777 26.9769 32.0583L27.496 32.8592C27.3898 32.9466 27.1722 32.9903 26.8432 32.9903C26.5759 32.9903 26.3498 32.9045 26.1647 32.733C26.0653 32.6392 25.9248 32.4434 25.7432 32.1456C25.589 31.89 25.4605 31.7605 25.3577 31.7573C24.7237 31.7411 24.2354 31.6327 23.8927 31.432C23.6768 31.3058 23.5689 31.1327 23.5689 30.9126C23.5689 30.6408 23.7402 30.5049 24.0829 30.5049C24.2097 30.5049 24.4736 30.5987 24.8745 30.7864C25.2789 30.9709 25.6113 31.0631 25.8717 31.0631C26.3926 31.0631 26.8809 30.9466 27.3367 30.7136C27.5594 30.6003 27.6708 30.4612 27.6708 30.2961C27.6708 30.0502 27.4652 29.9272 27.054 29.9272C26.9272 29.9272 26.5177 30.0146 25.8254 30.1893C25.4176 30.2929 25.1675 30.3447 25.075 30.3447C24.5301 30.3447 24.0812 30.1019 23.7282 29.6165C23.5569 29.3835 23.4712 29.1327 23.4712 28.8641C23.4678 28.3172 23.8636 27.9482 24.6586 27.7573C24.9842 27.6796 25.2909 27.6408 25.5787 27.6408C25.9077 27.6408 26.3737 27.7168 26.9769 27.8689V27.0437H22.8852V26.4612H28.19V27.0437Z" fill="black"/>
<path d="M34.0448 26.4612L34.0345 27.0437H29.6961L29.7064 29.9078C29.7064 30.3285 29.7835 30.6343 29.9377 30.8252C30.1124 31.0356 30.4174 31.1505 30.8526 31.1699C31.1302 31.1828 31.4078 31.0971 31.6854 30.9126C31.9321 30.7508 32.136 30.5453 32.2971 30.2961C32.4718 30.0243 32.5592 29.7589 32.5592 29.5L32.5489 27.6699L33.6233 28.0194V32.9903C33.6233 33.5955 33.3286 34.089 32.7391 34.4709C32.1943 34.8236 31.5552 35 30.8218 35C29.5813 35 28.6989 34.6812 28.1746 34.0437C27.9621 33.7848 27.8559 33.5631 27.8559 33.3786C27.8593 32.9741 28.0992 32.6343 28.5755 32.3592C28.997 32.1165 29.4339 31.9951 29.8863 31.9951L30.5391 32.8204C29.9497 32.8592 29.4219 32.9773 28.9559 33.1748C28.6509 33.3042 28.4984 33.4709 28.4984 33.6748C28.5361 33.9693 28.7708 34.2298 29.2026 34.4563C29.4596 34.5922 29.792 34.6602 30.1998 34.6602C31.1354 34.6602 31.8413 34.3738 32.3176 33.801C32.5438 33.5291 32.6569 33.212 32.6569 32.8495V30.8738C32.4341 31.2168 31.8396 31.3883 30.8732 31.3883C30.061 31.3883 29.4459 31.1262 29.0278 30.6019C28.8222 30.3463 28.7194 30.055 28.7194 29.7282V27.0437H27.9895V26.4612H34.0448Z" fill="black"/>
<path d="M39 27.0437H35.5766V27.8204C35.5903 27.8204 35.604 27.8269 35.6177 27.8398C35.6314 27.8528 35.6434 27.8592 35.6537 27.8592C35.6263 27.8592 35.6108 27.8576 35.6074 27.8544C35.6074 27.8382 35.8627 27.7864 36.3733 27.699C36.5618 27.6667 36.7486 27.6505 36.9336 27.6505C37.7047 27.6505 38.1998 27.8544 38.4191 28.2621C38.5665 28.534 38.6402 29.0825 38.6402 29.9078V31.7767C38.5682 31.7508 38.2958 31.6456 37.8229 31.4612C37.8229 31.3576 37.8006 31.2913 37.7561 31.2621C37.5744 31.3625 37.4254 31.4385 37.3088 31.4903C36.9387 31.6553 36.5087 31.7379 36.0186 31.7379C35.3435 31.7379 34.8227 31.5372 34.456 31.1359C34.2778 30.9417 34.1887 30.7249 34.1887 30.4854C34.1887 30.2168 34.3292 29.9498 34.6102 29.6845C35.1551 29.1699 35.8319 28.9126 36.6406 28.9126C37.1306 28.9126 37.5247 29.0194 37.8229 29.233V28.7864C37.6721 28.6052 37.5247 28.4838 37.3808 28.4223C37.2403 28.3608 37.0467 28.3333 36.8 28.3398C36.2482 28.3495 35.7428 28.445 35.2836 28.6262C35.078 28.7071 34.8775 28.7799 34.6822 28.8447V28.4854C34.7267 28.4498 34.7918 28.3964 34.8775 28.3252C34.8912 28.3091 34.8998 28.2994 34.9032 28.2961V27.0437H33.8494V26.4612H39V27.0437ZM37.8229 30.1165C37.8229 29.9741 37.643 29.8463 37.2831 29.733C36.985 29.6392 36.7366 29.5922 36.5378 29.5922C35.8147 29.5922 35.2356 29.8382 34.8004 30.3301C34.6256 30.5275 34.5382 30.6893 34.5382 30.8155C34.6102 31.0518 34.8929 31.1699 35.3864 31.1699C36.0238 31.1699 36.6063 31.0194 37.1341 30.7184C37.5933 30.4563 37.8229 30.2557 37.8229 30.1165Z" fill="black"/>
</svg>
