<svg width="77" height="162" viewBox="0 0 77 162" fill="none" xmlns="http://www.w3.org/2000/svg">
<path d="M17.4794 134.393C13.6474 134.033 9.69499 135.434 6.92374 138.527C4.1534 141.619 3.19394 145.699 3.97029 149.467C7.80148 149.826 11.7525 148.425 14.5232 145.333C17.2935 142.241 18.2557 138.161 17.4794 134.393Z" fill="#F3BB3E"/>
<path d="M25.9225 155.954C24.1066 152.562 20.7624 150.066 16.6673 149.509C12.5437 148.949 8.6047 150.486 5.91045 153.302C7.72638 156.694 11.0709 159.19 15.1657 159.746C19.2891 160.306 23.2282 158.77 25.9225 155.954Z" fill="#F3BB3E"/>
<path d="M32.1863 123.936C28.3456 124.027 24.5794 125.877 22.1675 129.266C19.7602 132.648 19.2468 136.797 20.4155 140.443C24.2559 140.352 28.0219 138.502 30.4337 135.114C32.8411 131.732 33.3551 127.582 32.1863 123.936Z" fill="#F3BB3E"/>
<path d="M42.9938 144.46C40.7933 141.3 37.1729 139.193 33.0288 139.091C28.8759 138.988 25.1441 140.922 22.7817 143.981C24.9821 147.142 28.6017 149.248 32.7458 149.351C36.8989 149.453 40.6314 147.52 42.9938 144.46Z" fill="#F3BB3E"/>
<path d="M41.5054 111.112C37.9151 112.522 34.9909 115.563 33.8685 119.584C32.7558 123.57 33.6635 127.622 35.9725 130.635C39.5624 129.224 42.4856 126.182 43.6078 122.161C44.7202 118.175 43.8137 114.124 41.5054 111.112Z" fill="#F3BB3E"/>
<path d="M58.6241 126.785C55.4534 124.485 51.292 123.682 47.343 124.992C43.4245 126.292 40.6101 129.375 39.4693 133.061C42.6399 135.36 46.8006 136.162 50.7491 134.853C54.6676 133.553 57.4834 130.471 58.6241 126.785Z" fill="#F3BB3E"/>
<path d="M47.2668 95.7743C44.1858 98.0854 42.2054 101.78 42.2427 105.929C42.2802 110.082 44.3305 113.744 47.4567 116.002C50.5372 113.691 52.517 109.996 52.4797 105.848C52.4424 101.696 50.3928 98.0325 47.2668 95.7743Z" fill="#F3BB3E"/>
<path d="M68.0804 106.081C64.4251 104.77 60.2338 105.158 56.8101 107.501C53.3908 109.841 51.5187 113.596 51.4231 117.466C55.0782 118.777 59.2684 118.389 62.692 116.046C66.1115 113.706 67.9847 109.951 68.0804 106.081Z" fill="#F3BB3E"/>
<path d="M49.848 78.5973C47.3455 81.4581 46.18 85.4456 47.0393 89.4931C47.9061 93.5754 50.6377 96.7913 54.139 98.4198C56.6409 95.559 57.8071 91.5721 56.9478 87.5249C56.081 83.4425 53.3494 80.2257 49.848 78.5973Z" fill="#F3BB3E"/>
<path d="M48.8756 60.904C46.6808 63.998 45.9229 68.0791 47.1778 72.0225C48.444 76.0009 51.4733 78.9359 55.109 80.2185C57.3032 77.1247 58.0609 73.0442 56.8061 69.1012C55.54 65.1229 52.5112 62.1867 48.8756 60.904Z" fill="#F3BB3E"/>
<path d="M43.9691 45.3748C43.3526 49.1777 44.488 53.2145 47.3921 56.1786C50.2975 59.1438 54.3122 60.3601 58.1283 59.8196C58.7445 56.017 57.6091 51.981 54.7053 49.0172C51.7999 46.0519 47.7853 44.8344 43.9691 45.3748Z" fill="#F3BB3E"/>
<path d="M72.3541 84.6126C68.5381 84.0838 64.529 85.3122 61.6319 88.2837C58.7336 91.2565 57.6077 95.2979 58.2351 99.1007C62.0509 99.6293 66.0604 98.4011 68.9573 95.4297C71.8554 92.4569 72.9814 88.4153 72.3541 84.6126Z" fill="#F3BB3E"/>
<path d="M71.8844 64.6671C68.0426 64.5356 64.1791 66.166 61.5854 69.4126C58.9941 72.6562 58.258 76.7776 59.2335 80.4893C63.0748 80.6204 66.9376 78.9901 69.5311 75.744C72.1224 72.5004 72.8598 68.3788 71.8844 64.6671Z" fill="#F3BB3E"/>
<path d="M66.1732 38.3245C62.6769 39.9617 59.9542 43.1844 59.0977 47.2678C58.2482 51.3184 59.4256 55.3039 61.9367 58.1587C65.433 56.5214 68.1558 53.2988 69.0122 49.2154C69.8616 45.1647 68.6845 41.1792 66.1732 38.3245Z" fill="#F3BB3E"/>
<path d="M31.2384 30.6152C31.7345 34.4528 33.9863 37.9835 37.6297 39.9404C41.2891 41.9059 45.5119 41.832 49.0179 40.1174C48.5213 36.2805 46.2697 32.7502 42.6269 30.7935C38.9677 28.8282 34.7442 28.9009 31.2384 30.6152Z" fill="#F3BB3E"/>
<path d="M50.2283 17.2849C47.4004 19.8575 45.7849 23.7015 46.1972 27.8227C46.6118 31.9667 48.9836 35.4477 52.2968 37.4331C55.124 34.8605 56.7382 31.017 56.3261 26.8965C55.9115 22.7526 53.5413 19.2703 50.2283 17.2849Z" fill="#F3BB3E"/>
<path d="M16.6938 21.6896C18.5929 25.0345 21.9984 27.4491 26.1066 27.9095C30.2413 28.3728 34.1403 26.7489 36.7668 23.8766C34.8676 20.5321 31.4627 18.1171 27.3549 17.6568C23.2202 17.1935 19.3202 18.8172 16.6938 21.6896Z" fill="#F3BB3E"/>
<path d="M5.39697 5.83595C6.23727 9.60756 8.7966 12.9126 12.5994 14.5248C16.4268 16.1474 20.6338 15.6811 23.9751 13.6445C23.1345 9.87339 20.5756 6.56896 16.7732 4.95698C12.9457 3.33441 8.73823 3.79935 5.39697 5.83595Z" fill="#F3BB3E"/>
<path d="M29.3761 2.22417C27.7405 5.65961 27.6925 9.82321 29.6077 13.4992C31.5343 17.1969 35.0122 19.5638 38.8039 20.2002C40.4393 16.7649 40.4879 12.6019 38.5727 8.92603C36.646 5.22803 33.168 2.86052 29.3761 2.22417Z" fill="#F3BB3E"/>
</svg>
