<svg width="72" height="72" viewBox="0 0 72 72" fill="none" xmlns="http://www.w3.org/2000/svg">
<path d="M63 30C63 51 36 69 36 69C36 69 9 51 9 30C9 22.8392 11.8446 15.9716 16.9081 10.9081C21.9716 5.84463 28.8392 3 36 3C43.1608 3 50.0284 5.84463 55.0919 10.9081C60.1554 15.9716 63 22.8392 63 30Z" stroke="white" stroke-width="6" stroke-linecap="round" stroke-linejoin="round"/>
<path d="M36 39C40.9706 39 45 34.9706 45 30C45 25.0294 40.9706 21 36 21C31.0294 21 27 25.0294 27 30C27 34.9706 31.0294 39 36 39Z" stroke="white" stroke-width="6" stroke-linecap="round" stroke-linejoin="round"/>
</svg>
