<svg width="151" height="164" viewBox="0 0 151 164" fill="none" xmlns="http://www.w3.org/2000/svg">
<g opacity="0.5">
<path d="M126.625 53.6952L34.1574 150.398C27.5047 157.355 16.2631 156.921 10.1674 149.47L8.56869 147.516C3.62001 141.468 3.75461 132.732 8.88728 126.839L10.6971 124.761C16.6703 117.903 27.1465 117.383 33.7693 123.616L64.0319 152.099C70.6441 158.322 81.1006 157.815 87.0799 150.982L126.625 105.788L139.705 89.801C144.649 83.7583 144.52 75.0323 139.399 69.1385L113.908 39.7998C109.125 34.2947 108.661 26.2548 112.779 20.2361L113.644 18.9711C119.942 9.76744 133.48 9.64758 139.939 18.7383L140.698 19.8071C145.103 26.0063 144.545 34.4472 139.363 40.013L126.625 53.6952Z" stroke="#F3BB3E" stroke-width="1.60285"/>
<circle cx="23.2417" cy="137.043" r="2.40427" transform="rotate(-180 23.2417 137.043)" fill="#F3BB3E"/>
<circle cx="76.1353" cy="137.043" r="2.40427" transform="rotate(-180 76.1353 137.043)" fill="#F3BB3E"/>
<circle cx="76.1353" cy="79.3409" r="2.40427" transform="rotate(-180 76.1353 79.3409)" fill="#F3BB3E"/>
<circle cx="127.427" cy="137.043" r="2.40427" transform="rotate(-180 127.427 137.043)" fill="#F3BB3E"/>
<circle cx="127.427" cy="79.3409" r="2.40427" transform="rotate(-180 127.427 79.3409)" fill="#F3BB3E"/>
<circle cx="127.427" cy="26.4458" r="2.40427" transform="rotate(-180 127.427 26.4458)" fill="#F3BB3E"/>
<circle cx="100.179" cy="108.192" r="3.20569" transform="rotate(-180 100.179 108.192)" fill="#F3BB3E" stroke="#F3BB3E" stroke-width="1.60285"/>
<path d="M54.2469 87.3799L94.5674 130.633L113.647 149.713C115.84 151.906 118.622 153.415 121.655 154.059L128.232 155.454C136.711 157.252 145.083 151.984 147.132 143.562L148.566 137.669C149.873 132.295 148.317 126.627 144.45 122.674L84.0556 60.9217C81.0401 57.8384 76.9093 56.1004 72.5966 56.1004L65.5898 56.1004C56.1815 56.1004 48.7965 64.1658 49.6234 73.5377L50.0047 77.8592C50.3186 81.4168 51.8116 84.7676 54.2469 87.3799Z" stroke="#F3BB3E" stroke-width="1.60285"/>
</g>
</svg>
