<svg width="151" height="164" viewBox="0 0 151 164" fill="none" xmlns="http://www.w3.org/2000/svg">
<g opacity="0.5">
<path d="M24.042 109.795L116.509 13.0925C123.162 6.13506 134.404 6.56967 140.499 14.02L142.098 15.974C147.047 22.0224 146.912 30.758 141.779 36.651L139.97 38.729C133.996 45.5871 123.52 46.1069 116.897 39.8737L86.6348 11.3912C80.0226 5.168 69.5662 5.67482 63.5868 12.5084L24.042 57.7025L10.9619 73.6892C6.01784 79.732 6.14703 88.458 11.2678 94.3517L36.7589 123.69C41.5419 129.195 42.0059 137.235 37.8878 143.254L37.0223 144.519C30.725 153.723 17.187 153.843 10.7278 144.752L9.96841 143.683C5.56374 137.484 6.12142 129.043 11.3034 123.477L24.042 109.795Z" stroke="#F3BB3E" stroke-width="1.60285"/>
<circle cx="127.425" cy="26.447" r="2.40427" fill="#F3BB3E"/>
<circle cx="74.5317" cy="26.447" r="2.40427" fill="#F3BB3E"/>
<circle cx="74.5317" cy="84.1494" r="2.40427" fill="#F3BB3E"/>
<circle cx="23.2402" cy="26.447" r="2.40427" fill="#F3BB3E"/>
<circle cx="23.2405" cy="84.1494" r="2.40427" fill="#F3BB3E"/>
<circle cx="23.2402" cy="137.044" r="2.40427" fill="#F3BB3E"/>
<circle cx="50.4881" cy="55.2984" r="3.20569" fill="#F3BB3E" stroke="#F3BB3E" stroke-width="1.60285"/>
<path d="M96.4201 76.1101L56.0996 32.8572L37.0196 13.7771C34.8269 11.5844 32.0452 10.0748 29.0117 9.43139L22.4352 8.03637C13.9562 6.2378 5.58352 11.5055 3.53491 19.9276L2.10142 25.8209C0.794287 31.1946 2.34978 36.8626 6.2167 40.8164L66.6114 102.568C69.6269 105.652 73.7577 107.39 78.0704 107.39L85.0771 107.39C94.4855 107.39 101.871 99.3242 101.044 89.9523L100.662 85.6307C100.348 82.0732 98.8554 78.7224 96.4201 76.1101Z" stroke="#F3BB3E" stroke-width="1.60285"/>
</g>
</svg>
