<svg width="77" height="162" viewBox="0 0 77 162" fill="none" xmlns="http://www.w3.org/2000/svg">
<path d="M58.709 134.395C62.541 134.035 66.4935 135.436 69.2647 138.529C72.0351 141.621 72.9945 145.701 72.2182 149.469C68.387 149.828 64.4359 148.427 61.6653 145.335C58.895 142.243 57.9328 138.163 58.709 134.395Z" fill="#F3BB3E"/>
<path d="M50.268 155.954C52.0839 152.562 55.428 150.066 59.5231 149.509C63.6467 148.949 67.5857 150.486 70.28 153.302C68.464 156.694 65.1196 159.19 61.0247 159.746C56.9013 160.306 52.9622 158.77 50.268 155.954Z" fill="#F3BB3E"/>
<path d="M44.0022 123.936C47.8429 124.027 51.6091 125.877 54.021 129.266C56.4283 132.648 56.9417 136.797 55.773 140.443C51.9326 140.352 48.1666 138.502 45.7548 135.114C43.3474 131.732 42.8334 127.582 44.0022 123.936Z" fill="#F3BB3E"/>
<path d="M33.1966 144.46C35.3971 141.3 39.0175 139.193 43.1617 139.091C47.3145 138.988 51.0464 140.922 53.4088 143.981C51.2083 147.142 47.5887 149.248 43.4447 149.351C39.2915 149.453 35.5591 147.52 33.1966 144.46Z" fill="#F3BB3E"/>
<path d="M34.6826 111.112C38.2729 112.522 41.1971 115.563 42.3195 119.584C43.4322 123.57 42.5245 127.622 40.2155 130.635C36.6256 129.224 33.7024 126.182 32.5802 122.161C31.4678 118.175 32.3743 114.124 34.6826 111.112Z" fill="#F3BB3E"/>
<path d="M17.5663 126.785C20.737 124.485 24.8985 123.682 28.8474 124.992C32.7659 126.292 35.5804 129.375 36.7211 133.061C33.5506 135.36 29.3898 136.162 25.4413 134.853C21.5228 133.553 18.7071 130.471 17.5663 126.785Z" fill="#F3BB3E"/>
<path d="M28.9232 95.7743C32.0042 98.0854 33.9845 101.78 33.9472 105.929C33.9098 110.082 31.8595 113.744 28.7333 116.002C25.6528 113.691 23.673 109.996 23.7102 105.848C23.7476 101.696 25.7971 98.0325 28.9232 95.7743Z" fill="#F3BB3E"/>
<path d="M8.10954 106.081C11.7648 104.77 15.9561 105.158 19.3799 107.501C22.7991 109.841 24.6712 113.596 24.7668 117.466C21.1118 118.777 16.9215 118.389 13.4979 116.046C10.0784 113.706 8.20525 109.951 8.10954 106.081Z" fill="#F3BB3E"/>
<path d="M26.3424 78.5973C28.8449 81.4581 30.0104 85.4456 29.1511 89.4931C28.2843 93.5754 25.5527 96.7913 22.0515 98.4198C19.5495 95.559 18.3833 91.5721 19.2426 87.5249C20.1095 83.4425 22.8411 80.2257 26.3424 78.5973Z" fill="#F3BB3E"/>
<path d="M27.3129 60.904C29.5077 63.998 30.2656 68.0791 29.0107 72.0225C27.7445 76.0009 24.7152 78.9359 21.0794 80.2185C18.8853 77.1247 18.1276 73.0442 19.3823 69.1012C20.6485 65.1229 23.6773 62.1867 27.3129 60.904Z" fill="#F3BB3E"/>
<path d="M32.2213 45.3748C32.8378 49.1777 31.7025 53.2145 28.7983 56.1786C25.8929 59.1438 21.8783 60.3601 18.0621 59.8196C17.4459 56.017 18.5813 51.981 21.4851 49.0172C24.3905 46.0519 28.4052 44.8344 32.2213 45.3748Z" fill="#F3BB3E"/>
<path d="M3.83631 84.6126C7.65233 84.0838 11.6614 85.3122 14.5585 88.2837C17.4569 91.2565 18.5827 95.2979 17.9553 99.1007C14.1395 99.6293 10.13 98.4011 7.23316 95.4297C4.33501 92.4569 3.20904 88.4153 3.83631 84.6126Z" fill="#F3BB3E"/>
<path d="M4.3041 64.6671C8.1459 64.5356 12.0094 66.166 14.6031 69.4126C17.1944 72.6562 17.9305 76.7776 16.955 80.4893C13.1136 80.6204 9.25083 78.9901 6.65739 75.744C4.06612 72.5004 3.32866 68.3788 4.3041 64.6671Z" fill="#F3BB3E"/>
<path d="M10.0172 38.3245C13.5136 39.9617 16.2362 43.1844 17.0927 47.2678C17.9422 51.3184 16.7649 55.3039 14.2537 58.1587C10.7574 56.5214 8.0346 53.2988 7.17821 49.2154C6.32881 45.1647 7.50594 41.1792 10.0172 38.3245Z" fill="#F3BB3E"/>
<path d="M44.9521 30.6152C44.4559 34.4528 42.2041 37.9835 38.5607 39.9404C34.9013 41.9059 30.6785 41.832 27.1726 40.1174C27.6692 36.2805 29.9207 32.7502 33.5636 30.7935C37.2227 28.8282 41.4462 28.9009 44.9521 30.6152Z" fill="#F3BB3E"/>
<path d="M25.9622 17.2849C28.79 19.8575 30.4056 23.7015 29.9932 27.8227C29.5786 31.9667 27.2068 35.4477 23.8936 37.4331C21.0664 34.8605 19.4522 31.017 19.8644 26.8965C20.2789 22.7526 22.6492 19.2703 25.9622 17.2849Z" fill="#F3BB3E"/>
<path d="M59.4942 21.6896C57.5951 25.0345 54.1895 27.4491 50.0814 27.9095C45.9467 28.3728 42.0477 26.7489 39.4212 23.8766C41.3204 20.5321 44.7253 18.1171 48.8331 17.6568C52.9678 17.1935 56.8678 18.8172 59.4942 21.6896Z" fill="#F3BB3E"/>
<path d="M70.793 5.83595C69.9527 9.60756 67.3933 12.9126 63.5906 14.5248C59.7632 16.1474 55.5561 15.6811 52.2149 13.6445C53.0555 9.87338 55.6143 6.56896 59.4168 4.95698C63.2442 3.3344 67.4517 3.79935 70.793 5.83595Z" fill="#F3BB3E"/>
<path d="M46.8143 2.22417C48.4499 5.65961 48.498 9.82321 46.5827 13.4992C44.6561 17.1969 41.1782 19.5638 37.3866 20.2002C35.7511 16.7649 35.7025 12.6019 37.6177 8.92603C39.5444 5.22803 43.0224 2.86052 46.8143 2.22417Z" fill="#F3BB3E"/>
</svg>
