<svg width="72" height="72" viewBox="0 0 72 72" fill="none" xmlns="http://www.w3.org/2000/svg">
<path d="M36 48C42.6274 48 48 42.6274 48 36C48 29.3726 42.6274 24 36 24C29.3726 24 24 29.3726 24 36C24 42.6274 29.3726 48 36 48Z" stroke="white" stroke-width="6" stroke-linecap="round" stroke-linejoin="round"/>
<path d="M48 24V39C48 41.3869 48.9482 43.6761 50.6361 45.3639C52.3239 47.0518 54.6131 48 57 48C59.387 48 61.6762 47.0518 63.364 45.3639C65.0518 43.6761 66 41.3869 66 39V36C65.9996 29.2291 63.7087 22.6574 59.4998 17.3536C55.291 12.0497 49.4117 8.32564 42.8179 6.78686C36.2242 5.24808 29.3038 5.98509 23.1821 8.87807C17.0603 11.771 12.0972 16.6498 9.0998 22.7211C6.10238 28.7924 5.24693 35.6992 6.67253 42.3183C8.09814 48.9374 11.721 54.8797 16.9519 59.1788C22.1829 63.4779 28.7143 65.881 35.4842 65.9974C42.2541 66.1138 48.8644 63.9367 54.24 59.82" stroke="white" stroke-width="6" stroke-linecap="round" stroke-linejoin="round"/>
</svg>
