<svg width="40" height="40" viewBox="0 0 40 40" fill="none" xmlns="http://www.w3.org/2000/svg">
<path d="M28.334 3.3335H11.6673C7.06494 3.3335 3.33398 7.06446 3.33398 11.6668V28.3335C3.33398 32.9359 7.06494 36.6668 11.6673 36.6668H28.334C32.9364 36.6668 36.6673 32.9359 36.6673 28.3335V11.6668C36.6673 7.06446 32.9364 3.3335 28.334 3.3335Z" stroke="black" stroke-width="3.33333" stroke-linecap="round" stroke-linejoin="round"/>
<path d="M26.6675 18.9495C26.8732 20.3366 26.6362 21.7532 25.9904 22.9979C25.3446 24.2425 24.3227 25.2519 23.0702 25.8823C21.8177 26.5127 20.3982 26.7322 19.0138 26.5094C17.6294 26.2866 16.3504 25.633 15.3589 24.6415C14.3673 23.6499 13.7137 22.371 13.4909 20.9865C13.2682 19.6021 13.4876 18.1827 14.118 16.9301C14.7485 15.6776 15.7578 14.6558 17.0025 14.0099C18.2471 13.3641 19.6637 13.1272 21.0508 13.3329C22.4657 13.5427 23.7756 14.202 24.787 15.2134C25.7984 16.2248 26.4577 17.5347 26.6675 18.9495Z" stroke="black" stroke-width="3.33333" stroke-linecap="round" stroke-linejoin="round"/>
<path d="M29.166 10.8335H29.1827" stroke="black" stroke-width="3.33333" stroke-linecap="round" stroke-linejoin="round"/>
</svg>
