<svg width="173" height="47" viewBox="0 0 173 47" fill="none" xmlns="http://www.w3.org/2000/svg">
<path d="M16.3109 13.1657H14.5881V19.1558C13.9665 18.787 13.0709 18.4709 11.9013 18.2075C10.8054 17.9546 9.85714 17.8282 9.05635 17.8282C7.12812 17.8282 5.51073 18.1706 4.20417 18.8555C3.46659 19.2454 3.09781 19.7564 3.09781 20.3886C3.09781 21.2316 3.54035 21.653 4.42544 21.653C4.96281 21.653 5.66351 21.495 6.52752 21.1789C7.08597 20.9787 7.80247 20.7258 8.67702 20.4202C9.04581 20.2938 9.69909 20.2306 10.6369 20.2306C12.4597 20.2306 13.819 20.7943 14.7146 21.9217C15.1466 22.4591 15.3626 23.0913 15.3626 23.8183C15.3626 25.4937 14.3089 26.8108 12.2016 27.7696C11.327 28.17 10.4946 28.3966 9.70436 28.4493C10.463 29.2079 11.1848 29.5872 11.8697 29.5872C12.0909 29.5872 12.328 29.5556 12.5809 29.4924L14.1772 32.1002C13.8506 32.3847 13.1815 32.527 12.17 32.527C11.3481 32.527 10.6527 32.2478 10.0837 31.6893C9.77812 31.3837 9.34611 30.7463 8.78766 29.7769C8.31351 28.9445 7.91838 28.523 7.60227 28.5125C5.65297 28.4598 4.15148 28.1068 3.09781 27.4535C2.43399 27.0426 2.10208 26.4789 2.10208 25.7624C2.10208 24.8773 2.62892 24.4348 3.6826 24.4348C4.07246 24.4348 4.88379 24.7403 6.11659 25.3514C7.35993 25.952 8.38199 26.2523 9.18279 26.2523C10.7844 26.2523 12.2859 25.873 13.6873 25.1144C14.3721 24.7456 14.7146 24.2925 14.7146 23.7551C14.7146 22.9543 14.0824 22.5539 12.818 22.5539C12.4281 22.5539 11.169 22.8384 9.04054 23.4074C7.78667 23.7446 7.01748 23.9132 6.73299 23.9132C5.05765 23.9132 3.67733 23.1229 2.59204 21.5424C2.06521 20.7838 1.80179 19.9672 1.80179 19.0926C1.79125 17.3119 3.00825 16.1107 5.45277 15.489C6.45377 15.2362 7.39681 15.1097 8.28189 15.1097C9.29342 15.1097 10.7264 15.3573 12.5809 15.8526V13.1657H0V11.2691H16.3109V13.1657Z" fill="#F3BB3E"/>
<path d="M33.5069 13.1657H20.7522V17.923C21.9007 16.6692 22.9649 15.8631 23.9448 15.5048C24.4927 15.3046 25.1091 15.2045 25.794 15.2045C28.365 15.2045 30.2879 16.469 31.5629 18.9978C32.1213 20.1041 32.4005 21.1947 32.4005 22.2694C32.4005 24.2293 31.5945 25.9995 29.9824 27.58C29.445 28.1068 29.0446 28.4703 28.7812 28.6705L26.1891 27.1216C26.8424 26.4367 27.5852 25.5938 28.4176 24.5928C29.3554 23.4654 29.8296 22.0429 29.8401 20.3254C29.8506 19.3033 29.6188 18.4499 29.1447 17.765C28.6073 16.9642 27.8487 16.5743 26.8687 16.5954C25.9626 16.6165 24.9932 16.9589 23.9606 17.6227C23.0334 18.2128 22.2642 18.9188 21.653 19.7406C20.9892 20.6257 20.6573 21.4792 20.6573 22.3011V28.5757L17.7018 26.9952V13.1657H15.9632V11.2691H17.7018C17.7018 8.17126 16.8957 5.52653 15.2836 3.33489C14.3142 2.01779 13.4186 1.09055 12.5967 0.55318L15.7893 0.52157C17.5595 1.49095 18.9662 3.5825 20.0093 6.79621C20.5045 8.32404 20.7522 9.81499 20.7522 11.2691H33.5069V13.1657Z" fill="#F3BB3E"/>
<path d="M49.1698 13.1657H33.1908V11.2691H49.1698V13.1657ZM47.858 18.8397C47.858 19.4614 47.4839 20.1621 46.7358 20.9418C46.1036 21.6056 45.4398 22.1009 44.7444 22.4275L42.3736 19.7406C43.0901 19.6774 43.7697 19.414 44.4125 18.9504C45.15 18.4235 45.5188 17.8229 45.5188 17.1486C45.5188 16.7903 45.287 16.4848 44.8234 16.2319C44.423 16.0001 44.0279 15.8842 43.638 15.8842C42.8267 15.8842 41.9574 16.274 41.0302 17.0537C39.1441 18.6343 38.201 20.3834 38.201 22.3011V29.0024L35.1664 27.4219V15.7261H38.2326V16.9273C38.6857 16.4742 39.6235 16.0001 41.046 15.5048C41.7414 15.2625 42.4579 15.1413 43.1955 15.1413C44.7233 15.1413 46.0193 15.7261 47.0835 16.8957C47.5998 17.4647 47.858 18.1127 47.858 18.8397Z" fill="#F3BB3E"/>
<path d="M65.5439 13.1657H61.2291V16.2793C61.7243 16.3952 62.0826 16.5374 62.3039 16.706V18.571C61.05 18.139 59.7434 17.923 58.3842 17.923C57.4043 17.923 56.456 18.0864 55.5393 18.413C54.317 18.845 53.7006 19.4614 53.6901 20.2622C53.669 21.1051 54.8649 21.5266 57.2778 21.5266C57.3305 21.5266 57.673 21.5108 58.3052 21.4792L59.2535 21.4318V22.8858C57.8205 22.928 56.9249 22.9649 56.5666 22.9965C54.0483 23.2178 52.7892 23.9448 52.7892 25.1776C52.7892 25.8625 53.2265 26.3999 54.101 26.7897C54.7859 27.0953 55.5235 27.2481 56.3137 27.2481C59.7382 27.2481 62.5093 25.7308 64.6272 22.6962V26.6949C62.8149 27.8434 60.6707 28.4176 58.1945 28.4176C55.4866 28.4176 53.1474 27.7907 51.1771 26.5368C50.2182 25.9257 49.7388 25.225 49.7388 24.4348C49.7388 23.6656 50.076 22.9965 50.7503 22.4275C51.1612 22.0798 51.8409 21.6794 52.7892 21.2263L51.746 20.6257C51.1244 20.2675 50.8135 19.788 50.8135 19.1874C50.8135 17.8809 51.7987 16.9431 53.7691 16.3741C55.2653 15.9421 56.9459 15.7261 58.8109 15.7261V13.1657H48.6798V11.2691H65.5439V13.1657Z" fill="#F3BB3E"/>
<path d="M81.9813 13.1657H77.6665V16.2793C78.1617 16.3952 78.52 16.5374 78.7412 16.706V18.571C77.4874 18.139 76.1808 17.923 74.8215 17.923C73.8416 17.923 72.8933 18.0864 71.9766 18.413C70.7544 18.845 70.138 19.4614 70.1274 20.2622C70.1063 21.1051 71.3023 21.5266 73.7152 21.5266C73.7679 21.5266 74.1103 21.5108 74.7425 21.4792L75.6908 21.4318V22.8858C74.2578 22.928 73.3622 22.9649 73.004 22.9965C70.4857 23.2178 69.2265 23.9448 69.2265 25.1776C69.2265 25.8625 69.6638 26.3999 70.5384 26.7897C71.2232 27.0953 71.9608 27.2481 72.7511 27.2481C76.1755 27.2481 78.9467 25.7308 81.0646 22.6962V26.6949C79.2523 27.8434 77.108 28.4176 74.6319 28.4176C71.9239 28.4176 69.5848 27.7907 67.6144 26.5368C66.6556 25.9257 66.1761 25.225 66.1761 24.4348C66.1761 23.6656 66.5133 22.9965 67.1877 22.4275C67.5986 22.0798 68.2782 21.6794 69.2265 21.2263L68.1834 20.6257C67.5617 20.2675 67.2509 19.788 67.2509 19.1874C67.2509 17.8809 68.2361 16.9431 70.2064 16.3741C71.7027 15.9421 73.3833 15.7261 75.2483 15.7261V13.1657H65.1172V11.2691H81.9813V13.1657Z" fill="#F3BB3E"/>
<path d="M97.4545 13.1657H95.7792V11.2691H97.4545V13.1657ZM92.0492 13.1657H90.2474V11.2691H92.0492V13.1657ZM95.2576 9.35664V28.8128C95.1522 28.7812 95.0153 28.7232 94.8467 28.6389L94.0248 28.2122C93.087 27.7275 92.5918 27.4851 92.5391 27.4851V9.38826C92.5391 8.28189 92.3231 7.10705 91.8911 5.86371C91.2905 4.12514 90.358 2.54463 89.0936 1.12217L88.0979 0H91.4644C93.2135 1.7491 94.362 3.89333 94.9099 6.43269C95.1417 7.50744 95.2576 8.48209 95.2576 9.35664Z" fill="#F3BB3E"/>
<path d="M112.643 13.1657H102.117V15.6945C102.159 15.6945 102.201 15.7156 102.243 15.7577C102.286 15.7999 102.322 15.8209 102.354 15.8209C102.27 15.8209 102.222 15.8157 102.212 15.8051C102.212 15.7525 102.997 15.5839 104.567 15.2994C105.146 15.194 105.721 15.1413 106.29 15.1413C108.66 15.1413 110.183 15.8051 110.857 17.1328C111.31 18.0179 111.537 19.8038 111.537 22.4907V28.5757C111.316 28.4914 110.478 28.149 109.024 27.5484C109.024 27.2112 108.955 26.9952 108.818 26.9004C108.26 27.227 107.802 27.4746 107.443 27.6432C106.305 28.1806 104.983 28.4493 103.476 28.4493C101.401 28.4493 99.7989 27.796 98.6715 26.4894C98.1236 25.8572 97.8496 25.1513 97.8496 24.3715C97.8496 23.497 98.2816 22.6277 99.1457 21.7637C100.821 20.0883 102.902 19.2507 105.389 19.2507C106.895 19.2507 108.107 19.5984 109.024 20.2938V18.8397C108.56 18.2497 108.107 17.8545 107.665 17.6543C107.233 17.4541 106.637 17.3646 105.879 17.3857C104.182 17.4173 102.628 17.7281 101.216 18.3182C100.584 18.5816 99.9675 18.8187 99.3669 19.0294V17.8598C99.5039 17.7439 99.7041 17.5701 99.9675 17.3382C100.01 17.2856 100.036 17.2539 100.047 17.2434V13.1657H96.8065V11.2691H112.643V13.1657ZM109.024 23.1703C109.024 22.7067 108.471 22.2905 107.364 21.9217C106.448 21.6162 105.684 21.4634 105.073 21.4634C102.849 21.4634 101.069 22.2642 99.7305 23.8658C99.1931 24.5085 98.9244 25.0353 98.9244 25.4463C99.1457 26.2155 100.015 26.6001 101.532 26.6001C103.492 26.6001 105.283 26.1101 106.906 25.1302C108.318 24.2767 109.024 23.6234 109.024 23.1703Z" fill="#F3BB3E"/>
<path d="M128.654 13.1657H126.931V19.1558C126.309 18.787 125.414 18.4709 124.244 18.2075C123.148 17.9546 122.2 17.8282 121.399 17.8282C119.471 17.8282 117.854 18.1706 116.547 18.8555C115.81 19.2454 115.441 19.7564 115.441 20.3886C115.441 21.2316 115.883 21.653 116.768 21.653C117.306 21.653 118.006 21.495 118.87 21.1789C119.429 20.9787 120.145 20.7258 121.02 20.4202C121.389 20.2938 122.042 20.2306 122.98 20.2306C124.803 20.2306 126.162 20.7943 127.058 21.9217C127.49 22.4591 127.706 23.0913 127.706 23.8183C127.706 25.4937 126.652 26.8108 124.545 27.7696C123.67 28.17 122.838 28.3966 122.047 28.4493C122.806 29.2079 123.528 29.5872 124.213 29.5872C124.434 29.5872 124.671 29.5556 124.924 29.4924L126.52 32.1002C126.194 32.3847 125.524 32.527 124.513 32.527C123.691 32.527 122.996 32.2478 122.427 31.6893C122.121 31.3837 121.689 30.7463 121.131 29.7769C120.656 28.9445 120.261 28.523 119.945 28.5125C117.996 28.4598 116.494 28.1068 115.441 27.4535C114.777 27.0426 114.445 26.4789 114.445 25.7624C114.445 24.8773 114.972 24.4348 116.026 24.4348C116.415 24.4348 117.227 24.7403 118.46 25.3514C119.703 25.952 120.725 26.2523 121.526 26.2523C123.127 26.2523 124.629 25.873 126.03 25.1144C126.715 24.7456 127.058 24.2925 127.058 23.7551C127.058 22.9543 126.425 22.5539 125.161 22.5539C124.771 22.5539 123.512 22.8384 121.383 23.4074C120.13 23.7446 119.36 23.9132 119.076 23.9132C117.401 23.9132 116.02 23.1229 114.935 21.5424C114.408 20.7838 114.145 19.9672 114.145 19.0926C114.134 17.3119 115.351 16.1107 117.796 15.489C118.797 15.2362 119.74 15.1097 120.625 15.1097C121.636 15.1097 123.069 15.3573 124.924 15.8526V13.1657H112.343V11.2691H128.654V13.1657Z" fill="#F3BB3E"/>
<path d="M146.656 11.2691L146.624 13.1657H133.285L133.316 22.4907C133.316 23.8605 133.553 24.8562 134.028 25.4779C134.565 26.1628 135.503 26.5368 136.841 26.6001C137.694 26.6422 138.548 26.363 139.401 25.7624C140.16 25.2355 140.787 24.5665 141.282 23.7551C141.82 22.87 142.088 22.006 142.088 21.1631L142.057 15.2045L145.36 16.3425V32.527C145.36 34.4974 144.454 36.1042 142.641 37.3476C140.966 38.4961 139.001 39.0703 136.746 39.0703C132.932 39.0703 130.219 38.0324 128.606 35.9567C127.953 35.1138 127.627 34.392 127.627 33.7914C127.637 32.4743 128.375 31.3679 129.839 30.4723C131.135 29.6821 132.479 29.2869 133.87 29.2869L135.877 31.9738C134.064 32.1002 132.442 32.4848 131.009 33.1276C130.071 33.549 129.602 34.0917 129.602 34.7555C129.718 35.7144 130.44 36.5626 131.767 37.3001C132.558 37.7427 133.58 37.964 134.834 37.964C137.71 37.964 139.881 37.0314 141.345 35.1664C142.041 34.2814 142.389 33.2488 142.389 32.0686V25.6359C141.704 26.7528 139.876 27.3113 136.904 27.3113C134.407 27.3113 132.516 26.4578 131.23 24.7509C130.598 23.9184 130.282 22.9701 130.282 21.9059V13.1657H128.037V11.2691H146.656Z" fill="#F3BB3E"/>
<path d="M161.892 13.1657H151.366V15.6945C151.408 15.6945 151.45 15.7156 151.492 15.7577C151.534 15.7999 151.571 15.8209 151.603 15.8209C151.519 15.8209 151.471 15.8157 151.461 15.8051C151.461 15.7525 152.246 15.5839 153.816 15.2994C154.395 15.194 154.969 15.1413 155.538 15.1413C157.909 15.1413 159.432 15.8051 160.106 17.1328C160.559 18.0179 160.786 19.8038 160.786 22.4907V28.5757C160.564 28.4914 159.727 28.149 158.273 27.5484C158.273 27.2112 158.204 26.9952 158.067 26.9004C157.509 27.227 157.05 27.4746 156.692 27.6432C155.554 28.1806 154.232 28.4493 152.725 28.4493C150.649 28.4493 149.048 27.796 147.92 26.4894C147.372 25.8572 147.098 25.1513 147.098 24.3715C147.098 23.497 147.53 22.6277 148.394 21.7637C150.07 20.0883 152.151 19.2507 154.638 19.2507C156.144 19.2507 157.356 19.5984 158.273 20.2938V18.8397C157.809 18.2497 157.356 17.8545 156.913 17.6543C156.481 17.4541 155.886 17.3646 155.127 17.3857C153.431 17.4173 151.877 17.7281 150.465 18.3182C149.833 18.5816 149.216 18.8187 148.616 19.0294V17.8598C148.753 17.7439 148.953 17.5701 149.216 17.3382C149.258 17.2856 149.285 17.2539 149.295 17.2434V13.1657H146.055V11.2691H161.892V13.1657ZM158.273 23.1703C158.273 22.7067 157.72 22.2905 156.613 21.9217C155.696 21.6162 154.933 21.4634 154.321 21.4634C152.098 21.4634 150.317 22.2642 148.979 23.8658C148.442 24.5085 148.173 25.0353 148.173 25.4463C148.394 26.2155 149.264 26.6001 150.781 26.6001C152.741 26.6001 154.532 26.1101 156.155 25.1302C157.567 24.2767 158.273 23.6234 158.273 23.1703Z" fill="#F3BB3E"/>
<path d="M38.7867 46L38.7545 45.5918L39.3775 45.4414C39.3847 45.4128 39.3919 45.3519 39.399 45.2588C39.4062 45.1585 39.4098 45.001 39.4098 44.7861C39.4169 44.5713 39.4205 44.2812 39.4205 43.916L39.4313 41.7354C39.4313 41.3773 39.4277 41.098 39.4205 40.8975C39.4133 40.6898 39.4062 40.5394 39.399 40.4463C39.399 40.346 39.3954 40.2852 39.3883 40.2637L38.7223 40.1025L38.7545 39.6943H41.0426C41.7516 39.6943 42.303 39.8519 42.6969 40.167C43.0908 40.4749 43.2877 40.9225 43.2877 41.5098C43.2877 41.9108 43.1839 42.2581 42.9762 42.5518C42.7757 42.8454 42.5035 43.0745 42.1598 43.2393C41.816 43.3968 41.4329 43.4756 41.0104 43.4756C40.8528 43.4756 40.7024 43.4684 40.5592 43.4541C40.4231 43.4326 40.2942 43.4111 40.1725 43.3896V42.8096C40.3372 42.8597 40.4804 42.8955 40.6021 42.917C40.7311 42.9385 40.8564 42.9492 40.9781 42.9492C41.4007 42.9492 41.7301 42.8454 41.9664 42.6377C42.2027 42.4229 42.3209 42.0934 42.3209 41.6494C42.3209 41.141 42.1884 40.7686 41.9234 40.5322C41.6585 40.2887 41.3255 40.167 40.9244 40.167H40.3551C40.3551 40.21 40.3515 40.3102 40.3443 40.4678C40.3443 40.6253 40.3408 40.8151 40.3336 41.0371C40.3336 41.252 40.3336 41.4847 40.3336 41.7354L40.3443 43.916C40.3443 44.2812 40.3479 44.5713 40.3551 44.7861C40.3622 44.9938 40.3694 45.1478 40.3766 45.248C40.3837 45.3411 40.3873 45.402 40.3873 45.4307L41.2789 45.5703L41.2467 46H38.7867Z" fill="white"/>
<path d="M52.2596 46.0537C52.0519 46.0322 51.8657 46.0179 51.701 46.0107C51.5434 46.0036 51.393 46 51.2498 46H47.5652L47.533 45.5918L48.199 45.4414C48.2133 45.4056 48.2205 45.3232 48.2205 45.1943C48.2277 45.0654 48.2313 44.89 48.2313 44.668C48.2384 44.446 48.242 44.1774 48.242 43.8623V41.8428C48.242 41.5205 48.2384 41.2484 48.2313 41.0264C48.2313 40.7972 48.2277 40.6182 48.2205 40.4893C48.2205 40.3604 48.2133 40.2816 48.199 40.2529L47.533 40.1025L47.5652 39.6943H51.0135C51.1137 39.6943 51.2176 39.6943 51.325 39.6943C51.4396 39.6872 51.5613 39.68 51.6902 39.6729C51.8191 39.6657 51.9516 39.6585 52.0877 39.6514L52.3025 41.0693L51.8191 41.1445L51.4646 40.2422C51.4074 40.2279 51.3429 40.2207 51.2713 40.2207C51.1997 40.2135 51.1245 40.21 51.0457 40.21H49.8318C49.6958 40.21 49.574 40.2135 49.4666 40.2207C49.3663 40.2207 49.2661 40.2279 49.1658 40.2422C49.1658 40.2708 49.1622 40.3532 49.1551 40.4893C49.1551 40.6182 49.1515 40.7686 49.1443 40.9404C49.1443 41.1123 49.1443 41.2842 49.1443 41.4561V44.3564C49.1443 44.4997 49.1443 44.6465 49.1443 44.7969C49.1515 44.9401 49.1551 45.069 49.1551 45.1836C49.1622 45.2982 49.1658 45.377 49.1658 45.4199C49.2661 45.4271 49.3699 45.4342 49.4773 45.4414C49.5919 45.4486 49.7173 45.4521 49.8533 45.4521H50.8953C51.0529 45.4521 51.1818 45.4521 51.282 45.4521C51.3823 45.445 51.4611 45.4378 51.5184 45.4307C51.5757 45.4235 51.6222 45.4163 51.658 45.4092L52.2166 44.3887L52.7 44.4854L52.2596 46.0537ZM51.0672 43.7979L50.9383 43.0674C50.9025 43.0531 50.8416 43.0423 50.7557 43.0352C50.6697 43.028 50.5659 43.0244 50.4441 43.0244H49.6277C49.5346 43.0244 49.4344 43.028 49.327 43.0352C49.2195 43.0423 49.1049 43.0495 48.9832 43.0566V42.4658C49.1049 42.473 49.2195 42.4801 49.327 42.4873C49.4344 42.4873 49.5346 42.4873 49.6277 42.4873H50.4441C50.5659 42.4873 50.6697 42.4837 50.7557 42.4766C50.8416 42.4694 50.9025 42.4622 50.9383 42.4551L51.0672 41.7139H51.5291V43.7979H51.0672Z" fill="white"/>
<path d="M56.8701 46L56.8486 45.5918L57.5039 45.4307C57.5039 45.3805 57.5039 45.3053 57.5039 45.2051C57.5111 45.0977 57.5146 44.9723 57.5146 44.8291C57.5146 44.6859 57.5146 44.5319 57.5146 44.3672C57.5218 44.2025 57.5254 44.0342 57.5254 43.8623V41.8428C57.5254 41.5133 57.5218 41.2376 57.5146 41.0156C57.5146 40.7865 57.5111 40.611 57.5039 40.4893C57.5039 40.3604 57.4967 40.2816 57.4824 40.2529L56.8164 40.1025L56.8486 39.6943H59.2012C59.8743 39.6943 60.3864 39.8268 60.7373 40.0918C61.0954 40.3496 61.2744 40.7327 61.2744 41.2412C61.2744 41.5921 61.1777 41.9072 60.9844 42.1865C60.791 42.4587 60.5225 42.6735 60.1787 42.8311C59.835 42.9886 59.4375 43.0674 58.9863 43.0674H58.2988V42.584H58.9111C59.3551 42.584 59.6989 42.473 59.9424 42.251C60.193 42.029 60.3184 41.721 60.3184 41.3271C60.3184 40.9476 60.2109 40.6611 59.9961 40.4678C59.7812 40.2673 59.4733 40.167 59.0723 40.167H58.4492C58.4421 40.1885 58.4349 40.2207 58.4277 40.2637C58.4277 40.2995 58.4277 40.3675 58.4277 40.4678C58.4277 40.568 58.4277 40.7148 58.4277 40.9082C58.4277 41.1016 58.4277 41.3594 58.4277 41.6816V43.8623C58.4277 44.1702 58.4277 44.4281 58.4277 44.6357C58.4349 44.8434 58.4421 45.0117 58.4492 45.1406C58.4635 45.2624 58.4743 45.359 58.4814 45.4307L59.1152 45.5918L59.083 46H56.8701ZM61.9619 46.1074C61.6468 46.1074 61.3675 46.0501 61.124 45.9355C60.8805 45.8138 60.6442 45.6169 60.415 45.3447C60.1859 45.0654 59.9388 44.6895 59.6738 44.2168L58.9434 42.8848L59.749 42.7021L60.9092 44.4102C61.1097 44.7038 61.2887 44.9401 61.4463 45.1191C61.611 45.291 61.7721 45.4199 61.9297 45.5059C62.0872 45.5918 62.2591 45.6527 62.4453 45.6885L62.4346 46.0645C62.363 46.0788 62.2842 46.0895 62.1982 46.0967C62.1195 46.1038 62.0407 46.1074 61.9619 46.1074Z" fill="white"/>
<path d="M66.2824 46L66.2609 45.5918L66.8732 45.4414C66.8804 45.4128 66.884 45.3411 66.884 45.2266C66.8911 45.112 66.8947 44.9473 66.8947 44.7324C66.9019 44.5104 66.9055 44.2383 66.9055 43.916L66.9162 41.6494C66.9162 41.363 66.9126 41.123 66.9055 40.9297C66.9055 40.7292 66.9019 40.5716 66.8947 40.457C66.8947 40.3424 66.8911 40.2744 66.884 40.2529L66.218 40.1025L66.2502 39.6943H69.6447C69.7522 39.6943 69.8596 39.6943 69.967 39.6943C70.0816 39.6872 70.1997 39.68 70.3215 39.6729C70.4504 39.6657 70.5829 39.6585 70.7189 39.6514L70.9445 41.0693L70.4504 41.1445L70.0852 40.2422C70.035 40.2279 69.9742 40.2207 69.9025 40.2207C69.8381 40.2135 69.7665 40.21 69.6877 40.21H68.4953C68.3879 40.21 68.2661 40.2135 68.1301 40.2207C68.0012 40.2207 67.8973 40.2279 67.8186 40.2422C67.8186 40.2708 67.815 40.3245 67.8078 40.4033C67.8078 40.4821 67.8078 40.5824 67.8078 40.7041C67.8078 40.8258 67.8078 40.9619 67.8078 41.1123C67.8078 41.2555 67.8078 41.4131 67.8078 41.585L67.8186 43.9268C67.8186 44.2633 67.8186 44.5391 67.8186 44.7539C67.8257 44.9688 67.8329 45.1299 67.84 45.2373C67.8472 45.3447 67.8544 45.4128 67.8615 45.4414L68.7316 45.5703L68.7102 46H66.2824ZM69.6984 43.8838L69.5588 43.1104C69.5158 43.096 69.4478 43.0853 69.3547 43.0781C69.2688 43.071 69.1649 43.0674 69.0432 43.0674H68.1408C68.0692 43.0674 67.9869 43.071 67.8938 43.0781C67.8078 43.0781 67.704 43.0817 67.5822 43.0889V42.498C67.6682 42.5052 67.7577 42.5124 67.8508 42.5195C67.951 42.5267 68.0477 42.5303 68.1408 42.5303H69.0432C69.1864 42.5303 69.2974 42.5267 69.3762 42.5195C69.4621 42.5052 69.523 42.4945 69.5588 42.4873L69.6984 41.7568H70.1604V43.8838H69.6984Z" fill="white"/>
<path d="M78.1332 46.0967C77.5102 46.0967 76.9551 45.9606 76.4682 45.6885C75.9884 45.4163 75.6124 45.0368 75.3402 44.5498C75.0681 44.0628 74.932 43.5042 74.932 42.874C74.932 42.2438 75.0717 41.6852 75.351 41.1982C75.6303 40.7041 76.0134 40.3138 76.5004 40.0273C76.9874 39.7409 77.5388 39.5977 78.1547 39.5977C78.7563 39.5977 79.2862 39.7337 79.7445 40.0059C80.21 40.278 80.5717 40.654 80.8295 41.1338C81.0873 41.6136 81.2162 42.1686 81.2162 42.7988C81.2162 43.2786 81.1339 43.7191 80.9691 44.1201C80.8044 44.5212 80.5788 44.8721 80.2924 45.1729C80.0059 45.4665 79.6765 45.6956 79.3041 45.8604C78.9389 46.0179 78.5486 46.0967 78.1332 46.0967ZM78.2299 45.5166C78.6166 45.5166 78.9496 45.4163 79.2289 45.2158C79.5154 45.0153 79.7374 44.7324 79.8949 44.3672C80.0525 43.9948 80.1313 43.5579 80.1313 43.0566C80.1313 42.4766 80.0417 41.9681 79.8627 41.5312C79.6908 41.0944 79.4473 40.7542 79.1322 40.5107C78.8171 40.2601 78.4483 40.1348 78.0258 40.1348C77.4171 40.1348 76.9337 40.3604 76.5756 40.8115C76.2247 41.2627 76.0492 41.8822 76.0492 42.6699C76.0492 43.2285 76.1423 43.7227 76.3285 44.1523C76.5147 44.5749 76.7725 44.9079 77.102 45.1514C77.4314 45.3949 77.8074 45.5166 78.2299 45.5166Z" fill="white"/>
<path d="M85.6119 46L85.5904 45.5918L86.2457 45.4307C86.2457 45.3805 86.2457 45.3053 86.2457 45.2051C86.2529 45.0977 86.2564 44.9723 86.2564 44.8291C86.2564 44.6859 86.2564 44.5319 86.2564 44.3672C86.2636 44.2025 86.2672 44.0342 86.2672 43.8623V41.8428C86.2672 41.5133 86.2636 41.2376 86.2564 41.0156C86.2564 40.7865 86.2529 40.611 86.2457 40.4893C86.2457 40.3604 86.2385 40.2816 86.2242 40.2529L85.5582 40.1025L85.5904 39.6943H87.943C88.6161 39.6943 89.1282 39.8268 89.4791 40.0918C89.8372 40.3496 90.0162 40.7327 90.0162 41.2412C90.0162 41.5921 89.9195 41.9072 89.7262 42.1865C89.5328 42.4587 89.2643 42.6735 88.9205 42.8311C88.5768 42.9886 88.1793 43.0674 87.7281 43.0674H87.0406V42.584H87.6529C88.0969 42.584 88.4407 42.473 88.6842 42.251C88.9348 42.029 89.0602 41.721 89.0602 41.3271C89.0602 40.9476 88.9527 40.6611 88.7379 40.4678C88.523 40.2673 88.2151 40.167 87.8141 40.167H87.191C87.1839 40.1885 87.1767 40.2207 87.1695 40.2637C87.1695 40.2995 87.1695 40.3675 87.1695 40.4678C87.1695 40.568 87.1695 40.7148 87.1695 40.9082C87.1695 41.1016 87.1695 41.3594 87.1695 41.6816V43.8623C87.1695 44.1702 87.1695 44.4281 87.1695 44.6357C87.1767 44.8434 87.1839 45.0117 87.191 45.1406C87.2053 45.2624 87.2161 45.359 87.2232 45.4307L87.857 45.5918L87.8248 46H85.6119ZM90.7037 46.1074C90.3886 46.1074 90.1093 46.0501 89.8658 45.9355C89.6223 45.8138 89.386 45.6169 89.1568 45.3447C88.9277 45.0654 88.6806 44.6895 88.4156 44.2168L87.6852 42.8848L88.4908 42.7021L89.651 44.4102C89.8515 44.7038 90.0305 44.9401 90.1881 45.1191C90.3528 45.291 90.5139 45.4199 90.6715 45.5059C90.829 45.5918 91.0009 45.6527 91.1871 45.6885L91.1764 46.0645C91.1048 46.0788 91.026 46.0895 90.94 46.0967C90.8613 46.1038 90.7825 46.1074 90.7037 46.1074Z" fill="white"/>
<path d="M95.0457 39.6943H96.9041L99.16 44.8398H98.9666L101.179 39.6943H102.92L102.952 40.1025L102.286 40.2422C102.279 40.3424 102.275 40.5322 102.275 40.8115C102.282 41.0837 102.29 41.3773 102.297 41.6924L102.34 43.6582C102.347 44.0163 102.354 44.3171 102.361 44.5605C102.368 44.7969 102.375 44.9867 102.383 45.1299C102.39 45.2731 102.397 45.3805 102.404 45.4521L103.059 45.5918L103.038 46H100.761L100.728 45.5918L101.384 45.4521C101.391 45.3662 101.394 45.266 101.394 45.1514C101.394 45.0368 101.394 44.8757 101.394 44.668C101.394 44.4603 101.391 44.1774 101.384 43.8193L101.362 40.0059H101.641L99.0418 46.0322H98.6658L96.0018 39.9951H96.2811L96.2918 43.6475C96.2918 44.2419 96.2918 44.6751 96.2918 44.9473C96.299 45.2122 96.3061 45.377 96.3133 45.4414L97.0437 45.5918L97.0115 46H94.9061L94.8738 45.5918L95.6043 45.4414C95.6115 45.3913 95.615 45.2982 95.615 45.1621C95.6222 45.026 95.6294 44.847 95.6365 44.625C95.6437 44.3958 95.6473 44.1273 95.6473 43.8193L95.6795 41.6924C95.6867 41.3773 95.6867 41.0908 95.6795 40.833C95.6795 40.568 95.6795 40.3747 95.6795 40.2529L95.0242 40.1025L95.0457 39.6943Z" fill="white"/>
<path d="M107.401 46L107.38 45.5918L108.035 45.4414C108.049 45.4056 108.057 45.3232 108.057 45.1943C108.064 45.0654 108.067 44.89 108.067 44.668C108.075 44.446 108.078 44.1774 108.078 43.8623V41.8428C108.078 41.5205 108.075 41.2484 108.067 41.0264C108.067 40.7972 108.064 40.6182 108.057 40.4893C108.057 40.3604 108.049 40.2816 108.035 40.2529L107.38 40.1025L107.401 39.6943H109.689L109.711 40.1025L109.056 40.2529C109.041 40.2744 109.027 40.346 109.013 40.4678C109.006 40.5824 108.998 40.7542 108.991 40.9834C108.991 41.2054 108.991 41.4919 108.991 41.8428V43.8623C108.991 44.2061 108.991 44.4889 108.991 44.7109C108.998 44.9329 109.006 45.1048 109.013 45.2266C109.027 45.3411 109.041 45.4128 109.056 45.4414L109.711 45.5918L109.689 46H107.401Z" fill="white"/>
<path d="M118.93 44.4639V42.0576C118.93 41.6351 118.926 41.2985 118.919 41.0479C118.912 40.79 118.905 40.6003 118.898 40.4785C118.89 40.3496 118.883 40.2744 118.876 40.2529L118.146 40.1025L118.178 39.6943H120.219L120.251 40.1025L119.585 40.2529C119.585 40.2744 119.578 40.3496 119.564 40.4785C119.557 40.6003 119.549 40.79 119.542 41.0479C119.535 41.2985 119.531 41.6351 119.531 42.0576V44.6143C119.531 44.8363 119.531 45.069 119.531 45.3125C119.531 45.5488 119.535 45.7923 119.542 46.043H119.059L115.106 40.7256H115.342V43.6045C115.342 44.0342 115.346 44.3815 115.353 44.6465C115.36 44.9043 115.367 45.0941 115.374 45.2158C115.389 45.3376 115.399 45.4128 115.406 45.4414L116.137 45.5918L116.105 46H114.042L114.01 45.5918L114.665 45.4414C114.672 45.4128 114.68 45.3376 114.687 45.2158C114.701 45.0941 114.712 44.9043 114.719 44.6465C114.726 44.3815 114.73 44.0342 114.73 43.6045V41.7676C114.73 41.4453 114.726 41.1803 114.719 40.9727C114.712 40.765 114.705 40.6038 114.697 40.4893C114.69 40.3747 114.68 40.2959 114.665 40.2529L114.01 40.1025L114.042 39.6943H115.514L119.123 44.4639H118.93Z" fill="white"/>
<path d="M128.063 46.0967C127.411 46.0967 126.824 45.9785 126.301 45.7422C125.778 45.4987 125.363 45.1406 125.055 44.668C124.747 44.1953 124.593 43.6081 124.593 42.9062C124.593 42.4551 124.672 42.0326 124.829 41.6387C124.994 41.2376 125.227 40.8831 125.528 40.5752C125.836 40.2673 126.208 40.0273 126.645 39.8555C127.089 39.6836 127.594 39.5977 128.16 39.5977C128.453 39.5977 128.768 39.6263 129.105 39.6836C129.441 39.7409 129.732 39.8232 129.975 39.9307L130.039 41.3379L129.567 41.3809L129.255 40.4248C129.119 40.3245 128.937 40.2529 128.707 40.21C128.485 40.167 128.274 40.1455 128.074 40.1455C127.522 40.1455 127.071 40.2637 126.72 40.5C126.369 40.7292 126.111 41.0371 125.947 41.4238C125.789 41.8105 125.71 42.2367 125.71 42.7021C125.71 43.3109 125.818 43.8265 126.033 44.249C126.255 44.6715 126.552 44.9938 126.924 45.2158C127.297 45.4307 127.716 45.5381 128.181 45.5381C128.389 45.5381 128.614 45.5094 128.858 45.4521C129.101 45.3877 129.32 45.2874 129.513 45.1514L129.255 45.7529V44.625C129.255 44.3958 129.252 44.1917 129.245 44.0127C129.237 43.8265 129.227 43.6868 129.212 43.5938L128.482 43.4756L128.503 43.0459H130.598L130.62 43.4541L130.147 43.583C130.147 43.6188 130.147 43.7048 130.147 43.8408C130.147 43.9769 130.147 44.1416 130.147 44.335C130.147 44.5785 130.15 44.7897 130.158 44.9688C130.165 45.1406 130.172 45.3197 130.179 45.5059C129.9 45.6849 129.563 45.8281 129.169 45.9355C128.783 46.043 128.414 46.0967 128.063 46.0967Z" fill="white"/>
<path d="M139.701 46L139.68 45.5918L140.206 45.4414L142.419 39.877L143.042 39.501L145.384 45.4414L145.921 45.5918L145.888 46H143.719L143.697 45.5918L144.352 45.4414L143.719 43.8516L143.6 43.5186L142.43 40.5967L142.677 40.457L141.559 43.5186L141.441 43.8408L140.872 45.4414L141.527 45.5918L141.506 46H139.701ZM141.205 44.0127V43.4434C141.341 43.4505 141.527 43.4577 141.763 43.4648C142 43.472 142.29 43.4756 142.634 43.4756C142.97 43.4756 143.257 43.472 143.493 43.4648C143.736 43.4577 143.923 43.4505 144.052 43.4434V44.0127C143.808 44.0055 143.565 44.002 143.321 44.002C143.085 43.9948 142.856 43.9912 142.634 43.9912C142.419 43.9912 142.193 43.9948 141.957 44.002C141.728 44.002 141.477 44.0055 141.205 44.0127Z" fill="white"/>
<path d="M149.779 46L149.758 45.5918L150.413 45.4307C150.413 45.3805 150.413 45.3053 150.413 45.2051C150.42 45.0977 150.424 44.9723 150.424 44.8291C150.424 44.6859 150.424 44.5319 150.424 44.3672C150.431 44.2025 150.435 44.0342 150.435 43.8623V41.8428C150.435 41.5133 150.431 41.2376 150.424 41.0156C150.424 40.7865 150.42 40.611 150.413 40.4893C150.413 40.3604 150.406 40.2816 150.392 40.2529L149.726 40.1025L149.758 39.6943H152.11C152.784 39.6943 153.296 39.8268 153.646 40.0918C154.005 40.3496 154.184 40.7327 154.184 41.2412C154.184 41.5921 154.087 41.9072 153.894 42.1865C153.7 42.4587 153.432 42.6735 153.088 42.8311C152.744 42.9886 152.347 43.0674 151.896 43.0674H151.208V42.584H151.82C152.264 42.584 152.608 42.473 152.852 42.251C153.102 42.029 153.228 41.721 153.228 41.3271C153.228 40.9476 153.12 40.6611 152.905 40.4678C152.69 40.2673 152.382 40.167 151.981 40.167H151.358C151.351 40.1885 151.344 40.2207 151.337 40.2637C151.337 40.2995 151.337 40.3675 151.337 40.4678C151.337 40.568 151.337 40.7148 151.337 40.9082C151.337 41.1016 151.337 41.3594 151.337 41.6816V43.8623C151.337 44.1702 151.337 44.4281 151.337 44.6357C151.344 44.8434 151.351 45.0117 151.358 45.1406C151.373 45.2624 151.383 45.359 151.391 45.4307L152.024 45.5918L151.992 46H149.779ZM154.871 46.1074C154.556 46.1074 154.277 46.0501 154.033 45.9355C153.79 45.8138 153.553 45.6169 153.324 45.3447C153.095 45.0654 152.848 44.6895 152.583 44.2168L151.853 42.8848L152.658 42.7021L153.818 44.4102C154.019 44.7038 154.198 44.9401 154.355 45.1191C154.52 45.291 154.681 45.4199 154.839 45.5059C154.996 45.5918 155.168 45.6527 155.354 45.6885L155.344 46.0645C155.272 46.0788 155.193 46.0895 155.107 46.0967C155.029 46.1038 154.95 46.1074 154.871 46.1074Z" fill="white"/>
<path d="M163.918 39.6514L164.154 41.3916L163.682 41.4453L163.231 40.2314C163.173 40.2171 163.105 40.21 163.027 40.21C162.955 40.2028 162.89 40.1992 162.833 40.1992H162.446C162.375 40.1992 162.278 40.1992 162.156 40.1992C162.035 40.1992 161.924 40.2028 161.823 40.21C161.823 40.2673 161.82 40.4033 161.813 40.6182C161.813 40.8258 161.813 41.0693 161.813 41.3486C161.813 41.6279 161.813 41.8965 161.813 42.1543V43.6045C161.813 44.0628 161.816 44.4603 161.823 44.7969C161.831 45.1263 161.834 45.3411 161.834 45.4414L162.747 45.5703L162.715 46H159.976L159.954 45.5703L160.857 45.4414C160.857 45.3411 160.86 45.1263 160.867 44.7969C160.875 44.4603 160.878 44.0628 160.878 43.6045V42.1543C160.878 41.8965 160.878 41.6279 160.878 41.3486C160.878 41.0693 160.878 40.8258 160.878 40.6182C160.878 40.4033 160.875 40.2673 160.867 40.21C160.774 40.2028 160.667 40.1992 160.545 40.1992C160.431 40.1992 160.334 40.1992 160.255 40.1992H159.836C159.779 40.1992 159.714 40.2028 159.643 40.21C159.571 40.21 159.507 40.2171 159.449 40.2314L159.009 41.4561L158.526 41.3916L158.762 39.6514C158.848 39.6585 158.934 39.6657 159.02 39.6729C159.106 39.6729 159.192 39.6764 159.278 39.6836C159.363 39.6836 159.449 39.6872 159.535 39.6943C159.628 39.6943 159.718 39.6943 159.804 39.6943H162.876C162.962 39.6943 163.048 39.6943 163.134 39.6943C163.22 39.6872 163.306 39.6836 163.392 39.6836C163.478 39.6764 163.564 39.6729 163.65 39.6729C163.743 39.6657 163.832 39.6585 163.918 39.6514Z" fill="white"/>
<path d="M170.054 46.0967C169.746 46.0967 169.424 46.0573 169.087 45.9785C168.751 45.8997 168.479 45.7995 168.271 45.6777L168.217 44.292L168.679 44.249L168.98 45.2051C169.152 45.3197 169.342 45.4092 169.549 45.4736C169.757 45.5309 169.979 45.5596 170.215 45.5596C170.573 45.5596 170.856 45.4736 171.064 45.3018C171.279 45.1299 171.386 44.8971 171.386 44.6035C171.386 44.3529 171.311 44.1452 171.161 43.9805C171.01 43.8086 170.813 43.6618 170.57 43.54C170.333 43.4183 170.079 43.2965 169.807 43.1748C169.542 43.0531 169.288 42.917 169.044 42.7666C168.808 42.609 168.615 42.4193 168.464 42.1973C168.314 41.9681 168.239 41.6852 168.239 41.3486C168.239 40.9977 168.335 40.6934 168.529 40.4355C168.722 40.1706 168.991 39.9629 169.334 39.8125C169.685 39.6621 170.083 39.5869 170.527 39.5869C170.713 39.5869 170.892 39.5977 171.064 39.6191C171.243 39.6335 171.408 39.6585 171.558 39.6943C171.708 39.7301 171.844 39.7767 171.966 39.834L172.052 41.1768L171.59 41.2197L171.289 40.3174C171.067 40.1742 170.774 40.1025 170.409 40.1025C170.043 40.1025 169.75 40.1921 169.528 40.3711C169.313 40.543 169.205 40.7757 169.205 41.0693C169.205 41.3271 169.281 41.542 169.431 41.7139C169.589 41.8857 169.786 42.0361 170.022 42.165C170.265 42.2939 170.52 42.4193 170.785 42.541C171.057 42.6628 171.311 42.7988 171.547 42.9492C171.791 43.0996 171.988 43.2858 172.138 43.5078C172.296 43.7227 172.374 43.9912 172.374 44.3135C172.374 44.6572 172.274 44.9652 172.074 45.2373C171.88 45.5023 171.608 45.7135 171.257 45.8711C170.906 46.0215 170.505 46.0967 170.054 46.0967Z" fill="white"/>
</svg>
